<?xml version="1.0" encoding="UTF-8"?>
<svg xmlns="http://www.w3.org/2000/svg" viewBox="0 0 800 500" width="800" height="500" role="img">
  <rect width="800" height="500" fill="#1c1c20"/>
  <g font-family="ui-monospace, SFMono-Regular, Menlo, monospace">
    <rect x="44" y="126" width="292" height="118" rx="14" fill="#141416" stroke="#3a3a41" stroke-width="2"/>
    <text x="72" y="180" font-size="30" fill="#8fb8e8">$</text>
    <text x="98" y="180" font-size="30" fill="#e8e8ea">wp-audit</text>
    <text x="72" y="218" font-size="24" fill="#6a6a70">una pasada</text>
    <path d="M352 185 H 432" stroke="#3a3a41" stroke-width="3"/>
    <path d="M420 173 l 14 12 l -14 12" fill="none" stroke="#8fb8e8" stroke-width="3"/>
    <rect x="456" y="96" width="300" height="178" rx="14" fill="#141416" stroke="#3a3a41" stroke-width="2"/>
    <text x="484" y="140" font-size="22" fill="#6a6a70">sitios en producción</text>
    <rect x="484" y="164" width="30" height="28" rx="6" fill="#26262a" stroke="#3a3a41" stroke-width="1.5"/>
    <circle cx="499" cy="178" r="4" fill="#8fb8e8" opacity="0.6"/>
    <rect x="524" y="164" width="30" height="28" rx="6" fill="#26262a" stroke="#3a3a41" stroke-width="1.5"/>
    <circle cx="539" cy="178" r="4" fill="#8fb8e8" opacity="0.6"/>
    <rect x="564" y="164" width="30" height="28" rx="6" fill="#26262a" stroke="#3a3a41" stroke-width="1.5"/>
    <circle cx="579" cy="178" r="4" fill="#8fb8e8" opacity="0.6"/>
    <rect x="604" y="164" width="30" height="28" rx="6" fill="#26262a" stroke="#3a3a41" stroke-width="1.5"/>
    <circle cx="619" cy="178" r="4" fill="#8fb8e8" opacity="0.6"/>
    <rect x="644" y="164" width="30" height="28" rx="6" fill="#26262a" stroke="#3a3a41" stroke-width="1.5"/>
    <circle cx="659" cy="178" r="4" fill="#8fb8e8" opacity="0.6"/>
    <rect x="684" y="164" width="30" height="28" rx="6" fill="#26262a" stroke="#3a3a41" stroke-width="1.5"/>
    <circle cx="699" cy="178" r="4" fill="#8fb8e8" opacity="0.6"/>
    <rect x="484" y="202" width="30" height="28" rx="6" fill="#26262a" stroke="#3a3a41" stroke-width="1.5"/>
    <circle cx="499" cy="216" r="4" fill="#8fb8e8" opacity="0.6"/>
    <rect x="524" y="202" width="30" height="28" rx="6" fill="#26262a" stroke="#3a3a41" stroke-width="1.5"/>
    <circle cx="539" cy="216" r="4" fill="#8fb8e8" opacity="0.6"/>
    <rect x="564" y="202" width="30" height="28" rx="6" fill="#26262a" stroke="#3a3a41" stroke-width="1.5"/>
    <circle cx="579" cy="216" r="4" fill="#8fb8e8" opacity="0.6"/>
    <rect x="604" y="202" width="30" height="28" rx="6" fill="#26262a" stroke="#3a3a41" stroke-width="1.5"/>
    <circle cx="619" cy="216" r="4" fill="#8fb8e8" opacity="0.6"/>
    <rect x="644" y="202" width="30" height="28" rx="6" fill="#26262a" stroke="#3a3a41" stroke-width="1.5"/>
    <circle cx="659" cy="216" r="4" fill="#8fb8e8" opacity="0.6"/>
    <rect x="684" y="202" width="30" height="28" rx="6" fill="#26262a" stroke="#3a3a41" stroke-width="1.5"/>
    <circle cx="699" cy="216" r="4" fill="#8fb8e8" opacity="0.6"/>
    <rect x="484" y="240" width="30" height="28" rx="6" fill="#26262a" stroke="#3a3a41" stroke-width="1.5"/>
    <circle cx="499" cy="254" r="4" fill="#8fb8e8" opacity="0.6"/>
    <rect x="524" y="240" width="30" height="28" rx="6" fill="#26262a" stroke="#3a3a41" stroke-width="1.5"/>
    <circle cx="539" cy="254" r="4" fill="#8fb8e8" opacity="0.6"/>
    <rect x="564" y="240" width="30" height="28" rx="6" fill="#26262a" stroke="#3a3a41" stroke-width="1.5"/>
    <circle cx="579" cy="254" r="4" fill="#8fb8e8" opacity="0.6"/>
    <rect x="604" y="240" width="30" height="28" rx="6" fill="#26262a" stroke="#3a3a41" stroke-width="1.5"/>
    <circle cx="619" cy="254" r="4" fill="#8fb8e8" opacity="0.6"/>
    <rect x="644" y="240" width="30" height="28" rx="6" fill="#26262a" stroke="#3a3a41" stroke-width="1.5"/>
    <circle cx="659" cy="254" r="4" fill="#8fb8e8" opacity="0.6"/>
    <rect x="684" y="240" width="30" height="28" rx="6" fill="#26262a" stroke="#3a3a41" stroke-width="1.5"/>
    <circle cx="699" cy="254" r="4" fill="#8fb8e8" opacity="0.6"/>
  </g>
  <g font-family="system-ui, -apple-system, &quot;Segoe UI&quot;, sans-serif" font-size="26" fill="#9a9aa0">
    <rect x="46" y="311" width="22" height="22" rx="5" fill="none" stroke="#8fb8e8" stroke-width="2"/>
    <path d="M52 321 l 4 5 l 7-9" fill="none" stroke="#8fb8e8" stroke-width="2.6"/>
    <text x="82" y="330">Auditoría</text>
    <rect x="46" y="357" width="22" height="22" rx="5" fill="none" stroke="#8fb8e8" stroke-width="2"/>
    <path d="M52 367 l 4 5 l 7-9" fill="none" stroke="#8fb8e8" stroke-width="2.6"/>
    <text x="82" y="376">Verificación post-deploy</text>
    <rect x="46" y="403" width="22" height="22" rx="5" fill="none" stroke="#8fb8e8" stroke-width="2"/>
    <path d="M52 413 l 4 5 l 7-9" fill="none" stroke="#8fb8e8" stroke-width="2.6"/>
    <text x="82" y="422">Migración entre proveedores</text>
    <text x="46" y="466" font-size="22" fill="#6a6a70">Python · Bash · WP-CLI · Nginx · DNS</text>
  </g>
</svg>
